<svg id="SvgjsSvg1014" width="256" height="256" xmlns="http://www.w3.org/2000/svg" version="1.1" xmlns:xlink="http://www.w3.org/1999/xlink" xmlns:svgjs="http://svgjs.com/svgjs"><defs id="SvgjsDefs1015"></defs><g id="SvgjsG1016"><svg xmlns="http://www.w3.org/2000/svg" viewBox="0 0 50 50" width="256" height="256"><path d="m30.1 22.2-.1.1c-1.3 1.5-1.8 2.8-1.4 3.7.2.6.6 1 1 1.3.2.2.4.3.6.4.9-1 1.8-2 2.6-2.9-.9-.9-1.8-1.7-2.7-2.6zm5.8-13c-.2.1-.4.3-.6.4-.9.6-1.8 1.2-2.4 2-.6.8-.9 1.6-.7 2.3.1.3.3.7.5 1.1.3.6.7 1.2.7 2 1 1 2.1 2 3 3 1.7-2.3 3.1-4.3 4.2-6.2-1.2-1.7-2.8-3.3-4.7-4.6zm7.7 11.1c-.9 1.4-2 2.8-3.1 4.3 1.2 1.4 2.3 2.7 3.3 4 .2-1.2.4-2.4.4-3.6 0-1.6-.2-3.2-.6-4.7zm-22.4 1.8c-.3-2.6-1.9-5-4.2-6.3l-.3-.1c-.7-.4-1.6-.9-2.1-1.9-.2-.6-.3-1.1-.3-1.6v-.6c-.1-.6-.5-1.2-1.1-1.7-4.5 3.5-7.5 9-7.5 15.2 0 3.5.9 6.7 2.5 9.5 0 0 0 .1.1.1.1.1.2.3.3.4.2 0 .4 0 .7.1 1.9.2 3.8.4 5.4-.1-.1-.4-.2-.8-.3-1.3-.3-.9-.5-1.8-.5-2.8 0-1.7.9-3.4 2.4-4.9 1.1-1 2.4-1.8 3.7-2.5l.4-.2c.2-.1.7-.4.8-.6v-.7zm14.7 17.5c-.3-.1-.6-.1-.9-.2-.3-.1-.7-.2-1-.5-.5-.5-.7-1.2-.5-2 .1-.5.3-.8.5-1.1.1-.2.2-.3.3-.5.1-.2.1-.4.1-.5h-.1c-.1 0-.3 0-.5.1-1.1.3-2.2.8-3.1 1.5-.3.2-.6.4-.7.7-.1.3-.1.7 0 1.1.1.6.3 1.1.4 1.7.3 1.2.6 2.4.6 3.6.8-.3 1.5-.5 2.2-.9l.3-.1c.7-.3 1.3-.6 1.8-1l.9-.6.1-.1c.3-.2.6-.5.9-.7-.5-.3-.9-.4-1.3-.5zm-7.6.6c-.2-.6-.3-1.2-.4-1.8-2.1 1.9-4.3 3.8-6.5 5.5 1.2.2 2.4.4 3.6.4 1.3 0 2.6-.1 3.9-.4v-.3c0-1.2-.3-2.3-.6-3.4zm0-11.3c-.8-.6-1.4-1.4-1.7-2.2-.5-1.7 0-3.5 1.8-5.6.1-.1.1-.2.2-.2-4.4-4.2-8.7-7.5-12.4-10 0 .1.1.3.1.4v.8c0 .4 0 .7.1.9.2.4.7.7 1.2 1h.4c2.8 1.6 4.8 4.6 5.2 7.8 0 .5.1 1-.1 1.5-.4.9-1.2 1.4-1.6 1.6l-.5.4c-1.2.7-2.4 1.4-3.3 2.3-.6.6-1.7 1.9-1.7 3.4 0 .7.2 1.4.4 2.2.2.8.5 1.6.5 2.5 0 .4-.2.8-.6 1-1.3.5-2.6.7-3.8.7-.8 0-1.5-.1-2.3-.1 1.3 1.6 2.8 2.9 4.5 4 3.9-2.6 8.8-6.6 14-12-.1-.2-.3-.3-.4-.4zm4.9-21.3c-.1-.1-.3-.1-.4-.2-.1-.1-.3-.1-.4-.2l-.6-.2c-2.1-.8-4.4-1.2-6.8-1.2-1.6 0-3.2.2-4.7.6 3.4 2.3 6.8 5 9.9 7.7-.2-1.2.2-2.5 1.1-3.7.8-1 1.8-1.7 2.7-2.3-.2-.2-.5-.3-.8-.5zm3.5 21.7c-1 1.1-2 2.3-3 3.4.8-.1 1.4.1 1.9.5.7.6.9 1.7.5 2.7-.1.3-.2.5-.4.8-.1.2-.3.5-.3.7v.1h.1c.3.1.5.1.8.2.8.2 1.6.4 2.4.8 1-1 1.8-2 2.5-3.2-1.3-1.9-2.8-3.9-4.5-6z" fill="#000000" class="color000 svgShape"></path><path d="M48 46.8c-.8.9-2 1.2-3.3 1.2-3 0-7-1.9-10.3-3.8-.1 0-.1-.1-.1-.1.7-.3 1.4-.7 2-1.1 6.1 3.4 9.3 3.4 10.3 2.4.9-1 .8-4-2.5-9.4-3-5.1-7.9-10.9-13.8-16.5C17.6 7.5 6 2 3.5 4.6c-1 1-.7 4.3 2.9 10.1-.4.7-.7 1.4-1 2.1-3-4.6-6.1-10.7-3.3-13.6C6.4-1.3 20.5 7.5 31.6 18c6 5.7 11 11.7 14.2 16.9 3.3 5.7 4.1 9.8 2.2 11.9z" fill="#000000" class="color000 svgShape"></path><path d="M34.1 26.3c.5.5.9 1 1.3 1.5-1.1 1.3-2.3 2.6-3.5 3.8C23.2 40.9 12.2 49 6.2 49c-1.2 0-2.2-.3-3-1-2.3-2.1-1.3-7 2.7-13.8.3.7.7 1.3 1.1 1.9v.1c-3.4 6.1-3.4 9.3-2.4 10.3 2.6 2.5 13.9-3.6 25.9-16.3 1.3-1.3 2.5-2.6 3.6-3.9zm5.1-3.3c-.4-.5-.9-1-1.4-1.5 6.8-9 9.5-16.2 7.5-18.1-1-1-4.3-.7-10.2 2.9H35c-.6-.3-1.2-.6-1.9-.9l.1-.1c4.6-3 10.6-6 13.5-3.3 3.5 3.3-.7 12.1-7.5 21z" fill="#000000" class="color000 svgShape"></path></svg></g></svg>