<?xml version="1.0" encoding="utf-8"?>
<!-- Generator: Adobe Illustrator 25.4.1, SVG Export Plug-In . SVG Version: 6.00 Build 0)  -->
<svg version="1.1" id="Layer_1" xmlns="http://www.w3.org/2000/svg" xmlns:xlink="http://www.w3.org/1999/xlink" x="0px" y="0px"
	 viewBox="0 0 532 301" style="enable-background:new 0 0 532 301;" xml:space="preserve">
<style type="text/css">
	.st0{fill:#7FDBDB;stroke:#222323;stroke-width:6.2487;stroke-linecap:round;stroke-linejoin:round;stroke-miterlimit:10;}
	.st1{fill:#FFFFFF;stroke:#222323;stroke-width:6.2487;stroke-linecap:round;stroke-linejoin:round;stroke-miterlimit:10;}
	.st2{fill:none;stroke:#222323;stroke-width:6.2487;stroke-linecap:round;stroke-linejoin:round;stroke-miterlimit:10;}
	.st3{fill:#FFFFFF;stroke:#222323;stroke-width:5.2072;stroke-miterlimit:10;}
	.st4{fill:none;stroke:#222323;stroke-width:5.2072;stroke-miterlimit:10;}
	.st5{fill:none;stroke:#7FDBDB;stroke-width:6.2487;stroke-linecap:round;stroke-linejoin:round;stroke-miterlimit:10;}
</style>
<g id="OBJECTS">
	<g>
		<g>
			<g>
				<path class="st0" d="M375.8,98.4c-19.5-40.8-61.2-68.9-109.4-68.9c-66.9,0-121.2,54.3-121.2,121.2s54.3,121.2,121.2,121.2
					s121.2-54.3,121.2-121.2c0-8.9-1-17.6-2.8-26"/>
				<g>
					<path class="st1" d="M352.2,235.9c-13.2-26.8-34.3-36.7-34.3-36.7h-103c0,0-21.2,9.9-34.3,36.7c0,0,72,75.1,164.8,6.5
						L352.2,235.9z"/>
					<path class="st2" d="M214.9,199.2c0,0-21.2,9.9-34.3,36.7"/>
					<path class="st2" d="M317.9,199.2c0,0,21.2,9.9,34.3,36.7"/>
					<polygon class="st0" points="241,211.4 267.4,249.7 294.6,211.3 					"/>
				</g>
				<line class="st2" x1="294.6" y1="211.3" x2="252.5" y2="270.8"/>
				<g>
					<g>
						<path class="st3" d="M198.4,209.8l-66.1-106.4c-2.6-4.1-1.3-9.5,2.8-12.1c4.1-2.6,9.5-1.3,12.1,2.8l56.9,91.7l9.2,14
							L198.4,209.8z"/>
					</g>
					<line class="st2" x1="185.3" y1="146.1" x2="161.9" y2="161.7"/>
					<g>
						<line class="st4" x1="145.5" y1="93.3" x2="138.5" y2="112.8"/>
						<line class="st4" x1="154.3" y1="106.6" x2="147.4" y2="126"/>
						<line class="st4" x1="163.4" y1="120.8" x2="156.5" y2="140.2"/>
						<line class="st4" x1="172.5" y1="134.9" x2="165.5" y2="154.3"/>
					</g>
				</g>
				<g>
					<path class="st1" d="M281.1,214.7h-30.9c-30.5,0-55.2-24.7-55.2-55.2v-33.4c0-30.5,24.7-55.2,55.2-55.2h30.9
						c30.5,0,55.2,24.7,55.2,55.2v33.4C336.3,190,311.6,214.7,281.1,214.7z"/>
					<path class="st0" d="M302.5,160.2h-73.7c-9.3,0-16.8-7.5-16.8-16.8v-5.6c0-9.3,7.5-16.8,16.8-16.8h73.7
						c9.3,0,16.8,7.5,16.8,16.8v5.6C319.3,152.7,311.8,160.2,302.5,160.2z"/>
					<g>
						<path class="st2" d="M279.6,145.3c0.7-6,6.3-11.1,12.4-11.1s11.7,5,12.4,11.1"/>
						<path class="st2" d="M251.8,145.3c-0.7-6-6.3-11.1-12.4-11.1c-6.1,0-11.7,5-12.4,11.1"/>
					</g>
					<path class="st1" d="M357.1,104.2c9.9-6.8,23.5-9.1,34.3-3.9c0.8,0.4,1.6,0.9,2.1,1.7c0.4,0.7,0.4,1.5,0.3,2.2
						c-0.5,12.9-9,24.8-20.2,31.2c-10.5,6-25.5,8.9-37.4,6.1C336.3,126.8,345,112.5,357.1,104.2z"/>
					<path class="st1" d="M365.6,154.2c6,6.5,9.1,16.2,6.4,24.6c-0.2,0.6-0.5,1.3-1,1.7c-0.4,0.3-1,0.4-1.6,0.5
						c-9.5,1-19-4-24.9-11.5c-5.5-7.1-9.2-17.7-8.3-26.7C347,141.3,358.3,146.2,365.6,154.2z"/>
				</g>
				<line class="st2" x1="211.9" y1="202.7" x2="240.1" y2="240.1"/>
				<line class="st2" x1="319.9" y1="202.7" x2="291.8" y2="240.1"/>
			</g>
			<line class="st2" x1="180.5" y1="235.9" x2="87.3" y2="235.9"/>
			<line class="st5" x1="121.6" y1="251.5" x2="13.4" y2="251.5"/>
			<line class="st2" x1="352.3" y1="235.9" x2="445.5" y2="235.9"/>
			<line class="st5" x1="411.2" y1="251.5" x2="519.5" y2="251.5"/>
		</g>
	</g>
</g>
</svg>
